<svg xmlns="http://www.w3.org/2000/svg" width="1920" height="480" viewBox="0 0 1920 480" preserveAspectRatio="xMidYMid slice">
  <defs>
    <linearGradient id="sky" x1="0" y1="0" x2="0" y2="1">
      <stop offset="0%" stop-color="#0B1F2E"/>
      <stop offset="100%" stop-color="#0B1F2E"/>
    </linearGradient>
  </defs>
  <rect width="100%" height="100%" fill="url(#sky)"/>
  <!-- Mountains -->
  <path d="M0 340 L200 300 L340 330 L510 280 L640 320 L820 270 L980 300 L1150 260 L1320 305 L1500 270 L1680 310 L1920 280 L1920 480 L0 480 Z" fill="#153A2C"/>
  <path d="M0 370 L140 330 L280 350 L420 320 L560 340 L700 310 L840 335 L980 315 L1120 345 L1260 320 L1400 335 L1540 310 L1680 340 L1820 320 L1920 340 L1920 480 L0 480 Z" fill="#113125" opacity="0.85"/>
  <!-- Trees silhouette -->
  <g fill="#0E291F">
    <rect x="20" y="330" width="6" height="60" />
    <polygon points="23,330 10,350 36,350" />
    <rect x="120" y="330" width="6" height="70" />
    <polygon points="123,330 110,352 136,352" />
    <rect x="240" y="330" width="6" height="65" />
    <polygon points="243,330 230,353 256,353" />
    <rect x="360" y="330" width="6" height="68" />
    <polygon points="363,330 350,354 376,354" />
    <rect x="480" y="330" width="6" height="72" />
    <polygon points="483,330 470,355 496,355" />
    <!-- sparse trees -->
    <rect x="820" y="330" width="6" height="60" />
    <polygon points="823,330 810,350 836,350" />
    <rect x="940" y="330" width="6" height="70" />
    <polygon points="943,330 930,352 956,352" />
    <rect x="1060" y="330" width="6" height="65" />
    <polygon points="1063,330 1050,353 1076,353" />
    <rect x="1180" y="330" width="6" height="68" />
    <polygon points="1183,330 1170,354 1196,354" />
    <rect x="1300" y="330" width="6" height="72" />
    <polygon points="1303,330 1290,355 1316,355" />
    <rect x="1560" y="330" width="6" height="60" />
    <polygon points="1563,330 1550,350 1576,350" />
    <rect x="1680" y="330" width="6" height="70" />
    <polygon points="1683,330 1670,352 1696,352" />
  </g>
</svg>